@startuml

class クラブ {
  名称
}
class クラブ所属 {
  発生日付
}
class 入部
class 退部
クラブ所属 <|-- 入部
クラブ所属 <|-- 退部
入寮者 -- クラブ所属
クラブ所属 -- クラブ

class 学校
class 大学
class 短期大学
class 大学院
学校 <|-- 大学
学校 <|-- 短期大学
学校 <|-- 大学院

class 学生
学生 <|-- 大学生
学生 <|-- 高校生
学生 -- 学校: 所属する
学校 -- クラブ: 所属する
入寮者 <|-- 学生
入寮者 <|-- 社会人
学生 -- 学籍

class 入寮者 {
  氏名
  フリガナ
  性別
  生年月日
}
class 建物
class フロア
class 部屋

class 郵便番号
class 電話番号
class 住所
住所 -- 郵便番号
住所 -- 電話番号
住所 -- 入寮者
住所 -- 保証人

class メールアドレス
メールアドレス -- 入寮者
メールアドレス -- 保証人

class 保証人
class 保証
保証人 -- 保証
保証 -- 入寮者

class 会社
class 勤務
会社 -- 勤務
会社 -- 住所
会社 -- 電話番号
勤務 -- 社会人
勤務 -- 保証人

class 契約
class 誓約
class 口座
class 寮管理者
class 入金
class 学籍 {
  入学年度
  受験番号
}
class 入退去

class 申請

部屋 -- 入退去
入退去 -- 入寮者

入金 <|-- 全納
入金 <|-- 分納
入金 <|-- 月払

寮管理者 -- 入寮者: 部屋割当
寮管理者 -- 入寮者: 減免する
寮管理者 -- 入寮者: 退寮の申請
寮管理者 -- 入寮者: 鍵引き渡す
寮管理者 -- 入寮者: 請求する
部屋 -- 契約
契約 -- 入寮者
部屋 -- 誓約
誓約 -- 入寮者
入寮者 -- 入金
入金 -- 口座
建物 o- フロア
フロア o- 部屋

@enduml